<svg width="22" height="25" viewBox="0 0 22 25" fill="none" xmlns="http://www.w3.org/2000/svg">
<path fill-rule="evenodd" clip-rule="evenodd" d="M11.0001 0C11.6352 0 12.1501 0.514873 12.1501 1.15V23.15C12.1501 23.7851 11.6352 24.3 11.0001 24.3C10.365 24.3 9.8501 23.7851 9.8501 23.15V1.15C9.8501 0.514873 10.365 0 11.0001 0Z" fill="#FBF7F4"/>
<path fill-rule="evenodd" clip-rule="evenodd" d="M10.1869 0.336827C10.636 -0.112276 11.3642 -0.112276 11.8133 0.336827L20.8133 9.33683C21.2624 9.78593 21.2624 10.5141 20.8133 10.9632C20.3642 11.4123 19.636 11.4123 19.1869 10.9632L11.0001 2.77635L2.81327 10.9632C2.36417 11.4123 1.63603 11.4123 1.18692 10.9632C0.737822 10.5141 0.737822 9.78593 1.18692 9.33683L10.1869 0.336827Z" fill="#FBF7F4"/>
</svg>
